<svg height="1646" width="720" xmlns="http://www.w3.org/2000/svg">
<rect height="1646" fill="#555" width="720"></rect>
<text fill="#7f7" font-family="Courier New" font-size="12" xml:space="preserve">
<tspan x="10" y="26">34 megabytes installed</tspan>
<tspan x="10" y="42"></tspan>
<tspan x="10" y="58">node_modules</tspan>
<tspan x="10" y="74">├── UNMET PEER DEPENDENCY extract-text-webpack-plugin@&gt;= 1.0.1 &lt; 3</tspan>
<tspan x="10" y="90">├── UNMET PEER DEPENDENCY history@&gt;= 4 &lt; 5</tspan>
<tspan x="10" y="106">├── UNMET PEER DEPENDENCY react@&gt;= 0.14.0</tspan>
<tspan x="10" y="122">├── UNMET PEER DEPENDENCY react-dom@&gt;= 0.14.0</tspan>
<tspan x="10" y="138">├── UNMET PEER DEPENDENCY react-router@&gt;= 2.4.0 &lt; 4</tspan>
<tspan x="10" y="154">├─┬ react-static-webpack-plugin@2.1.0 </tspan>
<tspan x="10" y="170">│ ├── bluebird@3.5.0 </tspan>
<tspan x="10" y="186">│ ├─┬ debug@2.6.4 </tspan>
<tspan x="10" y="202">│ │ └── ms@0.7.3 </tspan>
<tspan x="10" y="218">│ ├─┬ jsdom@9.12.0 </tspan>
<tspan x="10" y="234">│ │ ├── abab@1.0.3 </tspan>
<tspan x="10" y="250">│ │ ├── acorn@4.0.11 </tspan>
<tspan x="10" y="266">│ │ ├── acorn-globals@3.1.0 </tspan>
<tspan x="10" y="282">│ │ ├── array-equal@1.0.0 </tspan>
<tspan x="10" y="298">│ │ ├── content-type-parser@1.0.1 </tspan>
<tspan x="10" y="314">│ │ ├── cssom@0.3.2 </tspan>
<tspan x="10" y="330">│ │ ├── cssstyle@0.2.37 </tspan>
<tspan x="10" y="346">│ │ ├─┬ escodegen@1.8.1 </tspan>
<tspan x="10" y="362">│ │ │ ├── esprima@2.7.3 </tspan>
<tspan x="10" y="378">│ │ │ ├── estraverse@1.9.3 </tspan>
<tspan x="10" y="394">│ │ │ ├── esutils@2.0.2 </tspan>
<tspan x="10" y="410">│ │ │ ├─┬ optionator@0.8.2 </tspan>
<tspan x="10" y="426">│ │ │ │ ├── deep-is@0.1.3 </tspan>
<tspan x="10" y="442">│ │ │ │ ├── fast-levenshtein@2.0.6 </tspan>
<tspan x="10" y="458">│ │ │ │ ├── levn@0.3.0 </tspan>
<tspan x="10" y="474">│ │ │ │ ├── prelude-ls@1.1.2 </tspan>
<tspan x="10" y="490">│ │ │ │ ├── type-check@0.3.2 </tspan>
<tspan x="10" y="506">│ │ │ │ └── wordwrap@1.0.0 </tspan>
<tspan x="10" y="522">│ │ │ └─┬ source-map@0.2.0 </tspan>
<tspan x="10" y="538">│ │ │   └── amdefine@1.0.1 </tspan>
<tspan x="10" y="554">│ │ ├── html-encoding-sniffer@1.0.1 </tspan>
<tspan x="10" y="570">│ │ ├── nwmatcher@1.3.9 </tspan>
<tspan x="10" y="586">│ │ ├── parse5@1.5.1 </tspan>
<tspan x="10" y="602">│ │ ├─┬ request@2.81.0 </tspan>
<tspan x="10" y="618">│ │ │ ├── aws-sign2@0.6.0 </tspan>
<tspan x="10" y="634">│ │ │ ├── aws4@1.6.0 </tspan>
<tspan x="10" y="650">│ │ │ ├── caseless@0.12.0 </tspan>
<tspan x="10" y="666">│ │ │ ├─┬ combined-stream@1.0.5 </tspan>
<tspan x="10" y="682">│ │ │ │ └── delayed-stream@1.0.0 </tspan>
<tspan x="10" y="698">│ │ │ ├── extend@3.0.0 </tspan>
<tspan x="10" y="714">│ │ │ ├── forever-agent@0.6.1 </tspan>
<tspan x="10" y="730">│ │ │ ├─┬ form-data@2.1.4 </tspan>
<tspan x="10" y="746">│ │ │ │ └── asynckit@0.4.0 </tspan>
<tspan x="10" y="762">│ │ │ ├─┬ har-validator@4.2.1 </tspan>
<tspan x="10" y="778">│ │ │ │ ├─┬ ajv@4.11.7 </tspan>
<tspan x="10" y="794">│ │ │ │ │ ├── co@4.6.0 </tspan>
<tspan x="10" y="810">│ │ │ │ │ └─┬ json-stable-stringify@1.0.1 </tspan>
<tspan x="10" y="826">│ │ │ │ │   └── jsonify@0.0.0 </tspan>
<tspan x="10" y="842">│ │ │ │ └── har-schema@1.0.5 </tspan>
<tspan x="10" y="858">│ │ │ ├─┬ hawk@3.1.3 </tspan>
<tspan x="10" y="874">│ │ │ │ ├── boom@2.10.1 </tspan>
<tspan x="10" y="890">│ │ │ │ ├── cryptiles@2.0.5 </tspan>
<tspan x="10" y="906">│ │ │ │ ├── hoek@2.16.3 </tspan>
<tspan x="10" y="922">│ │ │ │ └── sntp@1.0.9 </tspan>
<tspan x="10" y="938">│ │ │ ├─┬ http-signature@1.1.1 </tspan>
<tspan x="10" y="954">│ │ │ │ ├── assert-plus@0.2.0 </tspan>
<tspan x="10" y="970">│ │ │ │ ├─┬ jsprim@1.4.0 </tspan>
<tspan x="10" y="986">│ │ │ │ │ ├── assert-plus@1.0.0 </tspan>
<tspan x="10" y="1002">│ │ │ │ │ ├── extsprintf@1.0.2 </tspan>
<tspan x="10" y="1018">│ │ │ │ │ ├── json-schema@0.2.3 </tspan>
<tspan x="10" y="1034">│ │ │ │ │ └── verror@1.3.6 </tspan>
<tspan x="10" y="1050">│ │ │ │ └─┬ sshpk@1.13.0 </tspan>
<tspan x="10" y="1066">│ │ │ │   ├── asn1@0.2.3 </tspan>
<tspan x="10" y="1082">│ │ │ │   ├── assert-plus@1.0.0 </tspan>
<tspan x="10" y="1098">│ │ │ │   ├── bcrypt-pbkdf@1.0.1 </tspan>
<tspan x="10" y="1114">│ │ │ │   ├─┬ dashdash@1.14.1 </tspan>
<tspan x="10" y="1130">│ │ │ │   │ └── assert-plus@1.0.0 </tspan>
<tspan x="10" y="1146">│ │ │ │   ├── ecc-jsbn@0.1.1 </tspan>
<tspan x="10" y="1162">│ │ │ │   ├─┬ getpass@0.1.6 </tspan>
<tspan x="10" y="1178">│ │ │ │   │ └── assert-plus@1.0.0 </tspan>
<tspan x="10" y="1194">│ │ │ │   ├── jodid25519@1.0.2 </tspan>
<tspan x="10" y="1210">│ │ │ │   ├── jsbn@0.1.1 </tspan>
<tspan x="10" y="1226">│ │ │ │   └── tweetnacl@0.14.5 </tspan>
<tspan x="10" y="1242">│ │ │ ├── is-typedarray@1.0.0 </tspan>
<tspan x="10" y="1258">│ │ │ ├── isstream@0.1.2 </tspan>
<tspan x="10" y="1274">│ │ │ ├── json-stringify-safe@5.0.1 </tspan>
<tspan x="10" y="1290">│ │ │ ├─┬ mime-types@2.1.15 </tspan>
<tspan x="10" y="1306">│ │ │ │ └── mime-db@1.27.0 </tspan>
<tspan x="10" y="1322">│ │ │ ├── oauth-sign@0.8.2 </tspan>
<tspan x="10" y="1338">│ │ │ ├── performance-now@0.2.0 </tspan>
<tspan x="10" y="1354">│ │ │ ├── qs@6.4.0 </tspan>
<tspan x="10" y="1370">│ │ │ ├── safe-buffer@5.0.1 </tspan>
<tspan x="10" y="1386">│ │ │ ├── stringstream@0.0.5 </tspan>
<tspan x="10" y="1402">│ │ │ ├── tunnel-agent@0.6.0 </tspan>
<tspan x="10" y="1418">│ │ │ └── uuid@3.0.1 </tspan>
<tspan x="10" y="1434">│ │ ├── sax@1.2.2 </tspan>
<tspan x="10" y="1450">│ │ ├── symbol-tree@3.2.2 </tspan>
<tspan x="10" y="1466">│ │ ├─┬ tough-cookie@2.3.2 </tspan>
<tspan x="10" y="1482">│ │ │ └── punycode@1.4.1 </tspan>
<tspan x="10" y="1498">│ │ ├── webidl-conversions@4.0.1 </tspan>
<tspan x="10" y="1514">│ │ ├─┬ whatwg-encoding@1.0.1 </tspan>
<tspan x="10" y="1530">│ │ │ └── iconv-lite@0.4.13 </tspan>
<tspan x="10" y="1546">│ │ ├─┬ whatwg-url@4.7.0 </tspan>
<tspan x="10" y="1562">│ │ │ ├── tr46@0.0.3 </tspan>
<tspan x="10" y="1578">│ │ │ └── webidl-conversions@3.0.1 </tspan>
<tspan x="10" y="1594">│ │ └── xml-name-validator@2.0.1 </tspan>
<tspan x="10" y="1610">│ └── lodash@4.17.4 </tspan>
<tspan x="10" y="1626">└── UNMET PEER DEPENDENCY webpack@&gt;= 1.13.1 &lt; 3</tspan>
</text>
</svg>
